<svg xmlns="http://www.w3.org/2000/svg" xmlns:xlink="http://www.w3.org/1999/xlink" width="500" zoomAndPan="magnify" viewBox="0 0 375 374.999991" height="500" preserveAspectRatio="xMidYMid meet" version="1.0"><defs><g/><clipPath id="4923a8205e"><path d="M 0 86.058594 L 88.5 86.058594 L 88.5 199.308594 L 0 199.308594 Z M 0 86.058594 " clip-rule="nonzero"/></clipPath></defs><g clip-path="url(#4923a8205e)"><path fill="#000000" d="M 88.5 94.90625 C 88.5 90.042969 84.515625 86.058594 79.5625 86.058594 L 8.9375 86.058594 C 3.984375 86.058594 0 90.042969 0 94.90625 L 0 190.460938 C 0 195.324219 3.984375 199.308594 8.9375 199.308594 L 79.5625 199.308594 C 84.515625 199.308594 88.5 195.324219 88.5 190.460938 Z M 84.960938 190.460938 C 84.960938 193.378906 82.570312 195.769531 79.5625 195.769531 L 8.9375 195.769531 C 6.019531 195.769531 3.539062 193.378906 3.539062 190.460938 L 3.539062 94.90625 C 3.539062 91.988281 5.929688 89.597656 8.9375 89.597656 L 79.5625 89.597656 C 82.480469 89.597656 84.960938 91.988281 84.960938 94.90625 Z M 84.960938 190.460938 " fill-opacity="1" fill-rule="nonzero"/></g><path fill="#000000" d="M 76.109375 185.152344 L 12.390625 185.152344 C 11.417969 185.152344 10.621094 185.949219 10.621094 186.921875 C 10.621094 187.894531 11.417969 188.691406 12.390625 188.691406 L 76.109375 188.691406 C 77.082031 188.691406 77.878906 187.894531 77.878906 186.921875 C 77.878906 185.949219 77.082031 185.152344 76.109375 185.152344 Z M 76.109375 185.152344 " fill-opacity="1" fill-rule="nonzero"/><path fill="#000000" d="M 76.109375 176.304688 L 12.390625 176.304688 C 11.417969 176.304688 10.621094 177.101562 10.621094 178.074219 C 10.621094 179.046875 11.417969 179.84375 12.390625 179.84375 L 76.109375 179.84375 C 77.082031 179.84375 77.878906 179.046875 77.878906 178.074219 C 77.878906 177.101562 77.082031 176.304688 76.109375 176.304688 Z M 76.109375 176.304688 " fill-opacity="1" fill-rule="nonzero"/><path fill="#000000" d="M 76.109375 105.523438 L 12.390625 105.523438 C 11.417969 105.523438 10.621094 106.320312 10.621094 107.292969 C 10.621094 108.265625 11.417969 109.0625 12.390625 109.0625 L 76.109375 109.0625 C 77.082031 109.0625 77.878906 108.265625 77.878906 107.292969 C 77.878906 106.320312 77.082031 105.523438 76.109375 105.523438 Z M 76.109375 105.523438 " fill-opacity="1" fill-rule="nonzero"/><path fill="#000000" d="M 76.109375 96.675781 L 12.390625 96.675781 C 11.417969 96.675781 10.621094 97.472656 10.621094 98.445312 C 10.621094 99.417969 11.417969 100.214844 12.390625 100.214844 L 76.109375 100.214844 C 77.082031 100.214844 77.878906 99.417969 77.878906 98.445312 C 77.878906 97.472656 77.082031 96.675781 76.109375 96.675781 Z M 76.109375 96.675781 " fill-opacity="1" fill-rule="nonzero"/><path fill="#000000" d="M 55.933594 129.589844 C 56.90625 130.828125 58.144531 133.394531 58.585938 138.703125 C 58.765625 140.558594 60.269531 141.886719 62.128906 141.886719 L 65.488281 141.886719 C 66.464844 141.886719 67.347656 141.535156 68.054688 140.824219 C 68.765625 140.117188 69.117188 139.234375 69.03125 138.261719 L 68.320312 119.0625 C 68.234375 116.40625 66.109375 114.371094 63.453125 114.371094 L 24.957031 114.371094 C 22.300781 114.371094 20.179688 116.40625 20.089844 119.0625 L 19.46875 138.261719 C 19.46875 139.234375 19.824219 140.117188 20.445312 140.824219 C 21.152344 141.535156 22.035156 141.886719 23.011719 141.886719 L 26.285156 141.886719 C 28.144531 141.886719 29.648438 140.472656 29.824219 138.703125 C 30.355469 133.304688 31.59375 130.738281 32.566406 129.589844 C 33.011719 128.96875 33.71875 128.351562 34.957031 127.910156 L 34.957031 158.875 C 34.957031 159.582031 34.867188 160.023438 34.867188 160.289062 C 34.425781 160.46875 33.453125 160.644531 31.773438 160.734375 C 29.914062 160.910156 28.496094 162.414062 28.496094 164.273438 L 28.496094 167.457031 C 28.496094 169.402344 30.089844 170.996094 32.035156 170.996094 L 56.640625 170.996094 C 58.585938 170.996094 60.179688 169.402344 60.179688 167.457031 L 60.179688 164.183594 C 60.179688 162.324219 58.765625 160.820312 56.90625 160.644531 C 55.136719 160.46875 54.25 160.289062 53.808594 160.203125 C 53.71875 159.9375 53.71875 159.492188 53.71875 158.785156 L 53.71875 127.820312 C 54.78125 128.351562 55.488281 128.96875 55.933594 129.589844 Z M 51.152344 162.855469 C 51.949219 163.476562 53.71875 163.917969 56.464844 164.183594 L 56.464844 167.457031 L 31.949219 167.457031 L 31.949219 164.183594 C 34.78125 163.917969 36.550781 163.476562 37.257812 162.855469 C 38.054688 162.238281 38.410156 160.820312 38.410156 158.785156 L 38.410156 123.925781 L 37.523438 123.925781 C 34.160156 123.925781 31.507812 125.078125 29.734375 127.378906 C 27.964844 129.679688 26.816406 133.304688 26.285156 138.347656 L 23.011719 138.347656 L 23.628906 119.148438 C 23.628906 118.441406 24.25 117.824219 24.957031 117.824219 L 63.542969 117.824219 C 64.25 117.824219 64.871094 118.351562 64.871094 119.148438 L 65.488281 138.347656 L 62.128906 138.347656 C 61.683594 133.304688 60.535156 129.679688 58.675781 127.378906 C 56.90625 125.078125 54.25 123.925781 50.886719 123.925781 L 50.003906 123.925781 L 50.003906 158.785156 C 50.003906 160.820312 50.355469 162.238281 51.152344 162.855469 Z M 51.152344 162.855469 " fill-opacity="1" fill-rule="nonzero"/><path fill="#000000" d="M 12.390625 126.757812 L 16.285156 126.757812 L 16.371094 123.21875 L 12.390625 123.21875 C 11.417969 123.21875 10.621094 124.015625 10.621094 124.988281 C 10.621094 125.960938 11.417969 126.757812 12.390625 126.757812 Z M 12.390625 126.757812 " fill-opacity="1" fill-rule="nonzero"/><path fill="#000000" d="M 12.390625 135.605469 L 16.019531 135.605469 L 16.105469 132.066406 L 12.390625 132.066406 C 11.417969 132.066406 10.621094 132.863281 10.621094 133.835938 C 10.621094 134.808594 11.417969 135.605469 12.390625 135.605469 Z M 12.390625 135.605469 " fill-opacity="1" fill-rule="nonzero"/><path fill="#000000" d="M 76.109375 114.371094 L 70.886719 114.371094 C 71.417969 115.34375 71.773438 116.496094 71.863281 117.644531 L 71.863281 117.910156 L 76.109375 117.910156 C 77.082031 117.910156 77.878906 117.113281 77.878906 116.140625 C 77.878906 115.167969 77.082031 114.371094 76.109375 114.371094 Z M 76.109375 114.371094 " fill-opacity="1" fill-rule="nonzero"/><path fill="#000000" d="M 12.390625 117.910156 L 16.550781 117.910156 L 16.550781 117.734375 C 16.550781 116.496094 16.902344 115.433594 17.523438 114.371094 L 12.390625 114.371094 C 11.417969 114.371094 10.621094 115.167969 10.621094 116.140625 C 10.621094 117.113281 11.417969 117.910156 12.390625 117.910156 Z M 12.390625 117.910156 " fill-opacity="1" fill-rule="nonzero"/><path fill="#000000" d="M 76.109375 149.761719 L 57.082031 149.761719 L 57.082031 153.300781 L 76.109375 153.300781 C 77.082031 153.300781 77.878906 152.503906 77.878906 151.53125 C 77.878906 150.558594 77.082031 149.761719 76.109375 149.761719 Z M 76.109375 149.761719 " fill-opacity="1" fill-rule="nonzero"/><path fill="#000000" d="M 76.109375 140.914062 L 72.128906 140.914062 C 71.773438 141.800781 71.242188 142.59375 70.621094 143.304688 C 70.179688 143.746094 69.738281 144.097656 69.207031 144.453125 L 76.199219 144.453125 C 77.171875 144.453125 77.96875 143.65625 77.96875 142.683594 C 77.96875 141.710938 77.082031 140.914062 76.109375 140.914062 Z M 76.109375 140.914062 " fill-opacity="1" fill-rule="nonzero"/><path fill="#000000" d="M 76.109375 132.066406 L 72.394531 132.066406 L 72.480469 135.605469 L 76.109375 135.605469 C 77.082031 135.605469 77.878906 134.808594 77.878906 133.835938 C 77.878906 132.863281 77.082031 132.066406 76.109375 132.066406 Z M 76.109375 132.066406 " fill-opacity="1" fill-rule="nonzero"/><path fill="#000000" d="M 76.109375 123.21875 L 72.039062 123.21875 L 72.128906 126.757812 L 76.109375 126.757812 C 77.082031 126.757812 77.878906 125.960938 77.878906 124.988281 C 77.878906 124.015625 77.082031 123.21875 76.109375 123.21875 Z M 76.109375 123.21875 " fill-opacity="1" fill-rule="nonzero"/><path fill="#000000" d="M 76.109375 158.609375 L 62.039062 158.609375 C 62.921875 159.492188 63.542969 160.734375 63.542969 162.148438 L 76.109375 162.148438 C 77.082031 162.148438 77.878906 161.351562 77.878906 160.378906 C 77.878906 159.40625 77.082031 158.609375 76.109375 158.609375 Z M 76.109375 158.609375 " fill-opacity="1" fill-rule="nonzero"/><path fill="#000000" d="M 12.390625 170.996094 L 25.046875 170.996094 C 24.957031 170.554688 24.867188 170.109375 24.867188 169.667969 L 24.867188 167.457031 L 12.390625 167.457031 C 11.417969 167.457031 10.621094 168.253906 10.621094 169.226562 C 10.621094 170.199219 11.417969 170.996094 12.390625 170.996094 Z M 12.390625 170.996094 " fill-opacity="1" fill-rule="nonzero"/><path fill="#000000" d="M 76.109375 167.457031 L 63.542969 167.457031 L 63.542969 169.667969 C 63.542969 170.109375 63.453125 170.554688 63.367188 170.996094 L 76.109375 170.996094 C 77.082031 170.996094 77.878906 170.199219 77.878906 169.226562 C 77.878906 168.253906 77.082031 167.457031 76.109375 167.457031 Z M 76.109375 167.457031 " fill-opacity="1" fill-rule="nonzero"/><path fill="#000000" d="M 12.390625 162.148438 L 24.867188 162.148438 C 24.867188 160.734375 25.488281 159.492188 26.371094 158.609375 L 12.390625 158.609375 C 11.417969 158.609375 10.621094 159.40625 10.621094 160.378906 C 10.621094 161.351562 11.417969 162.148438 12.390625 162.148438 Z M 12.390625 162.148438 " fill-opacity="1" fill-rule="nonzero"/><path fill="#000000" d="M 12.390625 153.300781 L 31.328125 153.300781 L 31.328125 149.761719 L 12.390625 149.761719 C 11.417969 149.761719 10.621094 150.558594 10.621094 151.53125 C 10.621094 152.503906 11.417969 153.300781 12.390625 153.300781 Z M 12.390625 153.300781 " fill-opacity="1" fill-rule="nonzero"/><path fill="#000000" d="M 12.390625 144.453125 L 19.382812 144.453125 C 18.851562 144.097656 18.40625 143.746094 17.964844 143.304688 C 17.257812 142.59375 16.816406 141.800781 16.460938 140.914062 L 12.390625 140.914062 C 11.417969 140.914062 10.621094 141.710938 10.621094 142.683594 C 10.621094 143.65625 11.417969 144.453125 12.390625 144.453125 Z M 12.390625 144.453125 " fill-opacity="1" fill-rule="nonzero"/><g fill="#000000" fill-opacity="1"><g transform="translate(90.975353, 161.911225)"><g><path d="M 3.9375 -12.03125 C 4.226562 -9.1875 5.265625 -6.921875 7.046875 -5.234375 C 8.835938 -3.546875 11.160156 -2.703125 14.015625 -2.703125 C 16.023438 -2.703125 17.816406 -3.113281 19.390625 -3.9375 C 20.960938 -4.769531 22.144531 -5.796875 22.9375 -7.015625 L 25.703125 -5.125 C 24.359375 -3.238281 22.753906 -1.800781 20.890625 -0.8125 C 19.023438 0.164062 16.734375 0.65625 14.015625 0.65625 C 11.941406 0.65625 10.039062 0.3125 8.3125 -0.375 C 6.59375 -1.0625 5.101562 -2.023438 3.84375 -3.265625 C 2.582031 -4.503906 1.609375 -5.976562 0.921875 -7.6875 C 0.234375 -9.394531 -0.109375 -11.289062 -0.109375 -13.375 C -0.109375 -15.414062 0.195312 -17.289062 0.8125 -19 C 1.4375 -20.71875 2.335938 -22.207031 3.515625 -23.46875 C 4.703125 -24.726562 6.140625 -25.707031 7.828125 -26.40625 C 9.515625 -27.101562 11.40625 -27.453125 13.5 -27.453125 C 15.78125 -27.453125 17.773438 -27.066406 19.484375 -26.296875 C 21.191406 -25.535156 22.613281 -24.476562 23.75 -23.125 C 24.894531 -21.769531 25.738281 -20.148438 26.28125 -18.265625 C 26.832031 -16.390625 27.109375 -14.3125 27.109375 -12.03125 Z M 22.9375 -15.390625 C 22.5 -18.328125 21.429688 -20.515625 19.734375 -21.953125 C 18.046875 -23.390625 15.96875 -24.109375 13.5 -24.109375 C 12.226562 -24.109375 11.054688 -23.898438 9.984375 -23.484375 C 8.910156 -23.078125 7.960938 -22.488281 7.140625 -21.71875 C 6.316406 -20.957031 5.625 -20.035156 5.0625 -18.953125 C 4.507812 -17.867188 4.15625 -16.679688 4 -15.390625 Z M 22.9375 -15.390625 "/></g></g></g><g fill="#000000" fill-opacity="1"><g transform="translate(123.144806, 161.911225)"><g><path d="M 27.453125 0 L 16.375 0 L 16.375 -3.484375 L 18.734375 -3.484375 L 13.4375 -11.25 L 8.203125 -3.484375 L 10.359375 -3.484375 L 10.359375 0 L -0.578125 0 L -0.578125 -3.484375 L 3.59375 -3.484375 L 10.96875 -13.609375 L 3.890625 -23.28125 L 0 -23.28125 L 0 -26.828125 L 11.015625 -26.828125 L 11.015625 -23.28125 L 8.546875 -23.28125 L 13.4375 -15.96875 L 18.390625 -23.28125 L 15.6875 -23.28125 L 15.6875 -26.828125 L 26.828125 -26.828125 L 26.828125 -23.28125 L 23.046875 -23.28125 L 15.96875 -13.609375 L 23.34375 -3.484375 L 27.453125 -3.484375 Z M 27.453125 0 "/></g></g></g><g fill="#000000" fill-opacity="1"><g transform="translate(155.314258, 161.911225)"><g><path d="M 27.109375 -8.546875 C 26.804688 -5.722656 25.695312 -3.484375 23.78125 -1.828125 C 21.875 -0.171875 19.492188 0.65625 16.640625 0.65625 C 15.066406 0.65625 13.625 0.398438 12.3125 -0.109375 C 11.007812 -0.628906 9.894531 -1.347656 8.96875 -2.265625 C 8.050781 -3.191406 7.335938 -4.300781 6.828125 -5.59375 C 6.328125 -6.894531 6.078125 -8.3125 6.078125 -9.84375 L 6.078125 -23.453125 L 0 -23.453125 L 0 -26.828125 L 6.078125 -26.828125 L 6.078125 -37.5625 L 10.015625 -37.5625 L 10.015625 -26.828125 L 21.4375 -26.828125 L 21.4375 -23.453125 L 10.015625 -23.453125 L 10.015625 -9.84375 C 10.015625 -8.863281 10.171875 -7.941406 10.484375 -7.078125 C 10.804688 -6.210938 11.25 -5.453125 11.8125 -4.796875 C 12.375 -4.148438 13.054688 -3.640625 13.859375 -3.265625 C 14.671875 -2.890625 15.597656 -2.703125 16.640625 -2.703125 C 18.585938 -2.703125 20.21875 -3.3125 21.53125 -4.53125 C 22.851562 -5.75 23.609375 -7.328125 23.796875 -9.265625 Z M 27.109375 -8.546875 "/></g></g></g><g fill="#000000" fill-opacity="1"><g transform="translate(187.483711, 161.911225)"><g><path d="M 16.09375 -32.171875 L 10.734375 -32.171875 L 10.734375 -37.5625 L 16.09375 -37.5625 Z M 21.4375 0 L 5.359375 0 L 5.359375 -3.359375 L 11.421875 -3.359375 L 11.421875 -23.453125 L 5.359375 -23.453125 L 5.359375 -26.828125 L 15.390625 -26.828125 L 15.390625 -3.359375 L 21.4375 -3.359375 Z M 21.4375 0 "/></g></g></g><g fill="#000000" fill-opacity="1"><g transform="translate(219.653163, 161.911225)"><g><path d="M 26.828125 -23.453125 L 15.390625 -23.453125 L 15.390625 -3.359375 L 21.4375 -3.359375 L 21.4375 0 L 5.359375 0 L 5.359375 -3.359375 L 11.421875 -3.359375 L 11.421875 -23.453125 L 5.359375 -23.453125 L 5.359375 -26.828125 L 11.421875 -26.828125 C 11.421875 -30.503906 12.375 -33.316406 14.28125 -35.265625 C 16.195312 -37.210938 19.082031 -38.1875 22.9375 -38.1875 C 23.832031 -38.1875 24.59375 -38.15625 25.21875 -38.09375 C 25.84375 -38.039062 26.378906 -37.976562 26.828125 -37.90625 L 26.828125 -34.53125 C 26.265625 -34.613281 25.679688 -34.679688 25.078125 -34.734375 C 24.472656 -34.796875 23.757812 -34.828125 22.9375 -34.828125 C 20.425781 -34.828125 18.539062 -34.1875 17.28125 -32.90625 C 16.019531 -31.632812 15.390625 -29.609375 15.390625 -26.828125 L 26.828125 -26.828125 Z M 26.828125 -23.453125 "/></g></g></g><g fill="#000000" fill-opacity="1"><g transform="translate(251.822616, 161.911225)"><g><path d="M 27.65625 -26.828125 L 13.15625 6.796875 C 12.40625 8.671875 11.347656 9.898438 9.984375 10.484375 C 8.617188 11.078125 7.113281 11.375 5.46875 11.375 C 3.625 11.375 1.78125 11.035156 -0.0625 10.359375 L 0.71875 6.96875 C 1.625 7.351562 2.503906 7.625 3.359375 7.78125 C 4.222656 7.945312 4.925781 8.03125 5.46875 8.03125 C 6.769531 8.03125 7.664062 7.710938 8.15625 7.078125 C 8.644531 6.441406 9.070312 5.691406 9.4375 4.828125 L 11.078125 0.78125 L -0.890625 -26.828125 L 3.765625 -26.828125 L 13.4375 -3.359375 L 22.9375 -26.828125 Z M 27.65625 -26.828125 "/></g></g></g><g fill="#ff3873" fill-opacity="0.302"><g transform="translate(82.61788, 121.446941)"><g><path d="M 40.058594 -20.355469 C 40.058594 -29.78125 36.144531 -36.597656 26.820312 -37.046875 C 16.644531 -37.046875 10.378906 -29.226562 10.277344 -18.199219 C 10.277344 -17.597656 10.777344 -17.144531 11.332031 -17.144531 C 11.933594 -17.144531 12.382812 -17.597656 12.382812 -18.199219 C 12.484375 -27.824219 17.695312 -34.941406 26.820312 -34.941406 C 34.792969 -34.542969 37.949219 -28.625 37.949219 -20.355469 C 37.949219 -11.28125 33.339844 1.304688 24.617188 1.304688 C 21.457031 1.304688 18.398438 -0.152344 18.398438 -3.160156 C 18.398438 -5.0625 19.804688 -6.566406 21.457031 -6.566406 C 22.761719 -6.566406 23.8125 -5.363281 24.363281 -3.960938 C 24.515625 -3.507812 24.917969 -3.257812 25.367188 -3.257812 C 26.070312 -3.257812 26.519531 -4.011719 26.320312 -4.664062 C 25.519531 -7.019531 23.8125 -8.671875 21.457031 -8.671875 C 18.699219 -8.671875 16.292969 -6.417969 16.292969 -3.160156 C 16.292969 0.902344 19.851562 3.410156 24.617188 3.410156 C 34.59375 3.410156 40.058594 -9.777344 40.058594 -20.355469 Z M 25.117188 -29.175781 C 25.667969 -30.382812 27.023438 -31.683594 28.175781 -31.886719 C 28.574219 -31.984375 29.027344 -32.335938 29.027344 -33.089844 C 28.925781 -33.738281 28.476562 -34.140625 27.773438 -33.992188 C 25.820312 -33.488281 24.214844 -32.085938 23.210938 -30.179688 C 21.808594 -27.421875 20.65625 -23.714844 19.5 -19.851562 C 17.144531 -12.183594 14.289062 -2.054688 7.269531 -2.054688 C 4.460938 -2.054688 2.105469 -3.710938 2.105469 -6.816406 C 2.105469 -9.726562 4.511719 -12.835938 7.269531 -12.835938 C 7.570312 -12.835938 7.820312 -12.785156 8.070312 -12.734375 C 8.773438 -12.582031 9.425781 -13.085938 9.425781 -13.785156 C 9.425781 -14.238281 9.125 -14.640625 8.671875 -14.789062 C 8.171875 -14.941406 7.71875 -14.988281 7.21875 -14.988281 C 3.410156 -14.988281 0 -11.078125 0 -6.71875 C 0 -2.605469 3.207031 0.0507812 7.320312 0.0507812 C 15.640625 0.0507812 18.75 -10.226562 21.507812 -19.25 C 22.660156 -22.960938 23.761719 -26.570312 25.117188 -29.175781 Z M 25.117188 -29.175781 "/></g></g></g><g fill="#ff3873" fill-opacity="0.302"><g transform="translate(124.378556, 121.446941)"><g><path d="M 8.171875 -26.269531 C 9.125 -26.269531 9.875 -27.023438 9.875 -27.972656 C 9.875 -28.925781 9.125 -29.679688 8.171875 -29.679688 C 7.21875 -29.679688 6.417969 -28.925781 6.417969 -27.972656 C 6.417969 -27.023438 7.21875 -26.269531 8.171875 -26.269531 Z M 11.480469 -11.933594 C 11.332031 -11.980469 11.230469 -12.03125 11.078125 -12.03125 C 10.679688 -12.03125 10.277344 -11.78125 10.078125 -11.378906 C 8.222656 -7.269531 5.914062 -2.105469 2.808594 -2.105469 C 1.753906 -2.105469 1.304688 -2.757812 1.304688 -4.210938 C 1.304688 -6.367188 2.207031 -8.671875 7.070312 -22.359375 C 7.371094 -23.210938 6.71875 -23.714844 6.066406 -23.714844 C 5.664062 -23.714844 5.265625 -23.460938 5.113281 -23.011719 C 2.90625 -17.296875 -0.652344 -8.121094 -0.800781 -4.210938 C -0.902344 -1.90625 0.402344 0 2.808594 0 C 7.019531 0 9.625 -5.113281 12.03125 -10.527344 C 12.082031 -10.679688 12.132812 -10.828125 12.132812 -10.980469 C 12.132812 -11.378906 11.882812 -11.78125 11.480469 -11.933594 Z M 11.480469 -11.933594 "/></g></g></g><g fill="#ff3873" fill-opacity="0.302"><g transform="translate(133.603004, 121.446941)"><g><path d="M 19.550781 -11.933594 C 19.402344 -11.980469 19.25 -12.03125 19.101562 -12.03125 C 18.699219 -12.03125 18.25 -11.832031 18.148438 -11.378906 C 17.347656 -8.523438 15.039062 -5.3125 12.382812 -5.3125 C 11.429688 -5.3125 10.628906 -5.664062 9.976562 -6.367188 C 10.929688 -7.921875 16.492188 -18.800781 18.199219 -22.308594 C 18.25 -22.460938 18.296875 -22.609375 18.296875 -22.761719 C 18.296875 -23.160156 18.046875 -23.5625 17.695312 -23.761719 C 17.546875 -23.8125 17.394531 -23.863281 17.246094 -23.863281 C 16.84375 -23.863281 16.445312 -23.613281 16.242188 -23.261719 C 15.492188 -21.609375 9.828125 -10.378906 9.273438 -9.476562 C 9.324219 -9.828125 9.425781 -10.277344 9.523438 -10.679688 C 9.675781 -11.378906 9.175781 -12.03125 8.472656 -12.03125 C 8.019531 -12.03125 7.621094 -11.730469 7.46875 -11.230469 C 7.070312 -9.828125 6.96875 -7.972656 7.519531 -6.46875 C 6.367188 -4.460938 4.511719 -2.105469 2.757812 -2.105469 C 1.65625 -2.105469 1.253906 -2.757812 1.253906 -4.210938 C 1.253906 -6.117188 2.757812 -10.378906 7.117188 -22.410156 C 7.371094 -23.0625 6.917969 -23.8125 6.117188 -23.8125 C 5.664062 -23.8125 5.265625 -23.5625 5.113281 -23.160156 C 1.605469 -13.183594 -0.851562 -7.417969 -0.851562 -4.210938 C -0.851562 -1.753906 0.25 0 2.757812 0 C 4.914062 0 6.367188 -1.253906 8.824219 -4.5625 C 9.726562 -3.660156 10.980469 -3.207031 12.332031 -3.207031 C 15.84375 -3.207031 19 -6.816406 20.105469 -10.578125 C 20.152344 -10.730469 20.203125 -10.828125 20.203125 -10.980469 C 20.203125 -11.378906 19.953125 -11.78125 19.550781 -11.933594 Z M 19.550781 -11.933594 "/></g></g></g><g fill="#ff3873" fill-opacity="0.302"><g transform="translate(150.898842, 121.446941)"><g><path d="M 18.148438 -11.933594 C 17.597656 -12.132812 16.996094 -11.882812 16.746094 -11.378906 C 13.9375 -4.914062 10.730469 -2.003906 6.617188 -2.105469 C 3.609375 -2.207031 2.003906 -3.960938 2.105469 -6.816406 C 2.15625 -7.871094 2.304688 -8.824219 2.65625 -10.128906 C 8.222656 -11.480469 15.691406 -14.6875 15.691406 -20.003906 C 15.691406 -22.410156 13.9375 -23.714844 11.429688 -23.714844 C 5.515625 -23.714844 0.300781 -13.285156 0 -6.867188 C -0.101562 -2.757812 2.40625 0 6.566406 0 C 11.632812 0 15.441406 -3.308594 18.699219 -10.527344 C 18.75 -10.679688 18.800781 -10.777344 18.800781 -10.929688 C 18.800781 -11.332031 18.550781 -11.730469 18.148438 -11.933594 Z M 3.460938 -12.535156 C 5.0625 -16.394531 7.972656 -21.609375 11.429688 -21.609375 C 12.535156 -21.609375 13.585938 -21.355469 13.585938 -20.003906 C 13.585938 -16.292969 7.621094 -13.835938 3.460938 -12.535156 Z M 3.460938 -12.535156 "/></g></g></g><g fill="#ff3873" fill-opacity="0.302"><g transform="translate(166.790962, 121.446941)"><g><path d="M 20.707031 -11.933594 C 20.554688 -11.980469 20.40625 -12.03125 20.253906 -12.03125 C 19.851562 -12.03125 19.5 -11.78125 19.300781 -11.378906 C 16.445312 -4.914062 14.539062 -2.105469 12.082031 -2.105469 C 10.980469 -2.105469 10.578125 -2.957031 10.578125 -4.210938 C 10.628906 -5.0625 10.730469 -5.914062 11.03125 -6.96875 C 11.332031 -8.222656 13.738281 -15.390625 14.386719 -17.046875 C 14.589844 -17.648438 14.339844 -18.296875 13.785156 -18.5 C 13.234375 -18.699219 12.582031 -18.898438 11.882812 -19.101562 C 10.429688 -19.601562 8.722656 -20.152344 7.320312 -20.855469 C 7.921875 -22.8125 8.121094 -23.261719 8.121094 -24.0625 C 8.121094 -26.070312 7.019531 -27.371094 5.214844 -27.371094 C 3.609375 -27.371094 2.15625 -26.167969 2.15625 -24.113281 C 2.15625 -22.257812 3.207031 -20.957031 4.710938 -19.902344 L 4.109375 -18.398438 L 0.101562 -9.675781 C 0.0507812 -9.523438 0 -9.375 0 -9.222656 C 0 -8.824219 0.25 -8.472656 0.601562 -8.273438 C 0.753906 -8.222656 0.902344 -8.171875 1.101562 -8.171875 C 1.453125 -8.171875 1.804688 -8.371094 2.003906 -8.773438 C 6.015625 -17.546875 6.367188 -18.25 6.566406 -18.851562 C 7.671875 -18.296875 8.222656 -18.097656 12.03125 -16.84375 C 11.582031 -15.742188 9.375 -9.074219 8.972656 -7.46875 C 8.621094 -6.214844 8.472656 -5.214844 8.472656 -4.210938 C 8.472656 -1.753906 9.675781 0 12.03125 0 L 12.082031 0 C 15.492188 0 17.996094 -3.058594 21.257812 -10.527344 C 21.308594 -10.679688 21.355469 -10.828125 21.355469 -10.980469 C 21.355469 -11.378906 21.105469 -11.730469 20.707031 -11.933594 Z M 6.015625 -24.113281 C 6.015625 -23.613281 5.714844 -22.710938 5.464844 -22.007812 C 4.710938 -22.609375 4.261719 -23.511719 4.261719 -24.316406 C 4.261719 -24.867188 4.5625 -25.265625 5.214844 -25.265625 C 5.613281 -25.265625 6.015625 -24.964844 6.015625 -24.113281 Z M 6.015625 -24.113281 "/></g></g></g><g fill="#ff3873" fill-opacity="0.302"><g transform="translate(185.23986, 121.446941)"><g><path d="M 16.542969 -8.875 C 16.492188 -12.28125 15.140625 -14.039062 12.535156 -18.851562 C 14.085938 -20.605469 15.339844 -22.8125 15.339844 -24.816406 C 15.242188 -26.269531 14.386719 -27.421875 12.933594 -27.421875 C 10.878906 -27.421875 9.273438 -25.21875 9.273438 -22.609375 C 9.273438 -21.457031 9.574219 -20.355469 10.027344 -19.300781 C 9.425781 -18.699219 8.921875 -18.148438 8.320312 -17.445312 C 8.171875 -17.246094 8.070312 -16.996094 8.070312 -16.792969 C 8.070312 -16.492188 8.171875 -16.144531 8.421875 -15.941406 C 8.621094 -15.742188 8.921875 -15.691406 9.175781 -15.691406 C 9.476562 -15.691406 9.777344 -15.84375 9.976562 -16.09375 C 10.277344 -16.492188 10.628906 -16.894531 10.980469 -17.246094 C 13.636719 -12.582031 14.386719 -11.128906 14.4375 -8.921875 C 14.339844 -4.761719 11.429688 -2.105469 7.371094 -2.105469 C 4.460938 -2.105469 1.90625 -4.261719 1.90625 -7.320312 C 2.105469 -10.378906 3.910156 -12.683594 6.667969 -12.683594 C 7.972656 -12.683594 9.222656 -11.429688 9.324219 -9.726562 C 9.324219 -9.125 9.777344 -8.671875 10.378906 -8.671875 C 10.980469 -8.671875 11.429688 -9.125 11.429688 -9.726562 C 11.332031 -12.484375 9.222656 -14.789062 6.617188 -14.789062 C 2.605469 -14.789062 0.101562 -11.832031 -0.199219 -7.320312 C -0.199219 -3.257812 3.207031 0 7.371094 0 C 12.433594 0 16.445312 -3.460938 16.542969 -8.875 Z M 11.632812 -21.054688 C 11.480469 -21.609375 11.378906 -22.109375 11.378906 -22.660156 C 11.378906 -23.363281 11.53125 -24.265625 12.132812 -24.867188 C 12.632812 -25.367188 13.183594 -25.519531 13.183594 -24.816406 C 13.183594 -23.714844 12.433594 -22.160156 11.632812 -21.054688 Z M 11.632812 -21.054688 "/></g></g></g><g fill="#ff3873" fill-opacity="0.302"><g transform="translate(204.541013, 121.446941)"><g><path d="M 18.148438 -11.933594 C 17.597656 -12.132812 16.996094 -11.882812 16.746094 -11.378906 C 13.9375 -4.914062 10.730469 -2.003906 6.617188 -2.105469 C 3.609375 -2.207031 2.003906 -3.960938 2.105469 -6.816406 C 2.15625 -7.871094 2.304688 -8.824219 2.65625 -10.128906 C 8.222656 -11.480469 15.691406 -14.6875 15.691406 -20.003906 C 15.691406 -22.410156 13.9375 -23.714844 11.429688 -23.714844 C 5.515625 -23.714844 0.300781 -13.285156 0 -6.867188 C -0.101562 -2.757812 2.40625 0 6.566406 0 C 11.632812 0 15.441406 -3.308594 18.699219 -10.527344 C 18.75 -10.679688 18.800781 -10.777344 18.800781 -10.929688 C 18.800781 -11.332031 18.550781 -11.730469 18.148438 -11.933594 Z M 3.460938 -12.535156 C 5.0625 -16.394531 7.972656 -21.609375 11.429688 -21.609375 C 12.535156 -21.609375 13.585938 -21.355469 13.585938 -20.003906 C 13.585938 -16.292969 7.621094 -13.835938 3.460938 -12.535156 Z M 3.460938 -12.535156 "/></g></g></g><g fill="#ff3873" fill-opacity="0.502"><g transform="translate(81.55696, 120.90637)"><g><path d="M 40.058594 -20.355469 C 40.058594 -29.78125 36.144531 -36.597656 26.820312 -37.046875 C 16.644531 -37.046875 10.378906 -29.226562 10.277344 -18.199219 C 10.277344 -17.597656 10.777344 -17.144531 11.332031 -17.144531 C 11.933594 -17.144531 12.382812 -17.597656 12.382812 -18.199219 C 12.484375 -27.824219 17.695312 -34.941406 26.820312 -34.941406 C 34.792969 -34.542969 37.949219 -28.625 37.949219 -20.355469 C 37.949219 -11.28125 33.339844 1.304688 24.617188 1.304688 C 21.457031 1.304688 18.398438 -0.152344 18.398438 -3.160156 C 18.398438 -5.0625 19.804688 -6.566406 21.457031 -6.566406 C 22.761719 -6.566406 23.8125 -5.363281 24.363281 -3.960938 C 24.515625 -3.507812 24.917969 -3.257812 25.367188 -3.257812 C 26.070312 -3.257812 26.519531 -4.011719 26.320312 -4.664062 C 25.519531 -7.019531 23.8125 -8.671875 21.457031 -8.671875 C 18.699219 -8.671875 16.292969 -6.417969 16.292969 -3.160156 C 16.292969 0.902344 19.851562 3.410156 24.617188 3.410156 C 34.59375 3.410156 40.058594 -9.777344 40.058594 -20.355469 Z M 25.117188 -29.175781 C 25.667969 -30.382812 27.023438 -31.683594 28.175781 -31.886719 C 28.574219 -31.984375 29.027344 -32.335938 29.027344 -33.089844 C 28.925781 -33.738281 28.476562 -34.140625 27.773438 -33.992188 C 25.820312 -33.488281 24.214844 -32.085938 23.210938 -30.179688 C 21.808594 -27.421875 20.65625 -23.714844 19.5 -19.851562 C 17.144531 -12.183594 14.289062 -2.054688 7.269531 -2.054688 C 4.460938 -2.054688 2.105469 -3.710938 2.105469 -6.816406 C 2.105469 -9.726562 4.511719 -12.835938 7.269531 -12.835938 C 7.570312 -12.835938 7.820312 -12.785156 8.070312 -12.734375 C 8.773438 -12.582031 9.425781 -13.085938 9.425781 -13.785156 C 9.425781 -14.238281 9.125 -14.640625 8.671875 -14.789062 C 8.171875 -14.941406 7.71875 -14.988281 7.21875 -14.988281 C 3.410156 -14.988281 0 -11.078125 0 -6.71875 C 0 -2.605469 3.207031 0.0507812 7.320312 0.0507812 C 15.640625 0.0507812 18.75 -10.226562 21.507812 -19.25 C 22.660156 -22.960938 23.761719 -26.570312 25.117188 -29.175781 Z M 25.117188 -29.175781 "/></g></g></g><g fill="#ff3873" fill-opacity="0.502"><g transform="translate(123.317636, 120.90637)"><g><path d="M 8.171875 -26.269531 C 9.125 -26.269531 9.875 -27.023438 9.875 -27.972656 C 9.875 -28.925781 9.125 -29.679688 8.171875 -29.679688 C 7.21875 -29.679688 6.417969 -28.925781 6.417969 -27.972656 C 6.417969 -27.023438 7.21875 -26.269531 8.171875 -26.269531 Z M 11.480469 -11.933594 C 11.332031 -11.980469 11.230469 -12.03125 11.078125 -12.03125 C 10.679688 -12.03125 10.277344 -11.78125 10.078125 -11.378906 C 8.222656 -7.269531 5.914062 -2.105469 2.808594 -2.105469 C 1.753906 -2.105469 1.304688 -2.757812 1.304688 -4.210938 C 1.304688 -6.367188 2.207031 -8.671875 7.070312 -22.359375 C 7.371094 -23.210938 6.71875 -23.714844 6.066406 -23.714844 C 5.664062 -23.714844 5.265625 -23.460938 5.113281 -23.011719 C 2.90625 -17.296875 -0.652344 -8.121094 -0.800781 -4.210938 C -0.902344 -1.90625 0.402344 0 2.808594 0 C 7.019531 0 9.625 -5.113281 12.03125 -10.527344 C 12.082031 -10.679688 12.132812 -10.828125 12.132812 -10.980469 C 12.132812 -11.378906 11.882812 -11.78125 11.480469 -11.933594 Z M 11.480469 -11.933594 "/></g></g></g><g fill="#ff3873" fill-opacity="0.502"><g transform="translate(132.542084, 120.90637)"><g><path d="M 19.550781 -11.933594 C 19.402344 -11.980469 19.25 -12.03125 19.101562 -12.03125 C 18.699219 -12.03125 18.25 -11.832031 18.148438 -11.378906 C 17.347656 -8.523438 15.039062 -5.3125 12.382812 -5.3125 C 11.429688 -5.3125 10.628906 -5.664062 9.976562 -6.367188 C 10.929688 -7.921875 16.492188 -18.800781 18.199219 -22.308594 C 18.25 -22.460938 18.296875 -22.609375 18.296875 -22.761719 C 18.296875 -23.160156 18.046875 -23.5625 17.695312 -23.761719 C 17.546875 -23.8125 17.394531 -23.863281 17.246094 -23.863281 C 16.84375 -23.863281 16.445312 -23.613281 16.242188 -23.261719 C 15.492188 -21.609375 9.828125 -10.378906 9.273438 -9.476562 C 9.324219 -9.828125 9.425781 -10.277344 9.523438 -10.679688 C 9.675781 -11.378906 9.175781 -12.03125 8.472656 -12.03125 C 8.019531 -12.03125 7.621094 -11.730469 7.46875 -11.230469 C 7.070312 -9.828125 6.96875 -7.972656 7.519531 -6.46875 C 6.367188 -4.460938 4.511719 -2.105469 2.757812 -2.105469 C 1.65625 -2.105469 1.253906 -2.757812 1.253906 -4.210938 C 1.253906 -6.117188 2.757812 -10.378906 7.117188 -22.410156 C 7.371094 -23.0625 6.917969 -23.8125 6.117188 -23.8125 C 5.664062 -23.8125 5.265625 -23.5625 5.113281 -23.160156 C 1.605469 -13.183594 -0.851562 -7.417969 -0.851562 -4.210938 C -0.851562 -1.753906 0.25 0 2.757812 0 C 4.914062 0 6.367188 -1.253906 8.824219 -4.5625 C 9.726562 -3.660156 10.980469 -3.207031 12.332031 -3.207031 C 15.84375 -3.207031 19 -6.816406 20.105469 -10.578125 C 20.152344 -10.730469 20.203125 -10.828125 20.203125 -10.980469 C 20.203125 -11.378906 19.953125 -11.78125 19.550781 -11.933594 Z M 19.550781 -11.933594 "/></g></g></g><g fill="#ff3873" fill-opacity="0.502"><g transform="translate(149.837922, 120.90637)"><g><path d="M 18.148438 -11.933594 C 17.597656 -12.132812 16.996094 -11.882812 16.746094 -11.378906 C 13.9375 -4.914062 10.730469 -2.003906 6.617188 -2.105469 C 3.609375 -2.207031 2.003906 -3.960938 2.105469 -6.816406 C 2.15625 -7.871094 2.304688 -8.824219 2.65625 -10.128906 C 8.222656 -11.480469 15.691406 -14.6875 15.691406 -20.003906 C 15.691406 -22.410156 13.9375 -23.714844 11.429688 -23.714844 C 5.515625 -23.714844 0.300781 -13.285156 0 -6.867188 C -0.101562 -2.757812 2.40625 0 6.566406 0 C 11.632812 0 15.441406 -3.308594 18.699219 -10.527344 C 18.75 -10.679688 18.800781 -10.777344 18.800781 -10.929688 C 18.800781 -11.332031 18.550781 -11.730469 18.148438 -11.933594 Z M 3.460938 -12.535156 C 5.0625 -16.394531 7.972656 -21.609375 11.429688 -21.609375 C 12.535156 -21.609375 13.585938 -21.355469 13.585938 -20.003906 C 13.585938 -16.292969 7.621094 -13.835938 3.460938 -12.535156 Z M 3.460938 -12.535156 "/></g></g></g><g fill="#ff3873" fill-opacity="0.502"><g transform="translate(165.730042, 120.90637)"><g><path d="M 20.707031 -11.933594 C 20.554688 -11.980469 20.40625 -12.03125 20.253906 -12.03125 C 19.851562 -12.03125 19.5 -11.78125 19.300781 -11.378906 C 16.445312 -4.914062 14.539062 -2.105469 12.082031 -2.105469 C 10.980469 -2.105469 10.578125 -2.957031 10.578125 -4.210938 C 10.628906 -5.0625 10.730469 -5.914062 11.03125 -6.96875 C 11.332031 -8.222656 13.738281 -15.390625 14.386719 -17.046875 C 14.589844 -17.648438 14.339844 -18.296875 13.785156 -18.5 C 13.234375 -18.699219 12.582031 -18.898438 11.882812 -19.101562 C 10.429688 -19.601562 8.722656 -20.152344 7.320312 -20.855469 C 7.921875 -22.8125 8.121094 -23.261719 8.121094 -24.0625 C 8.121094 -26.070312 7.019531 -27.371094 5.214844 -27.371094 C 3.609375 -27.371094 2.15625 -26.167969 2.15625 -24.113281 C 2.15625 -22.257812 3.207031 -20.957031 4.710938 -19.902344 L 4.109375 -18.398438 L 0.101562 -9.675781 C 0.0507812 -9.523438 0 -9.375 0 -9.222656 C 0 -8.824219 0.25 -8.472656 0.601562 -8.273438 C 0.753906 -8.222656 0.902344 -8.171875 1.101562 -8.171875 C 1.453125 -8.171875 1.804688 -8.371094 2.003906 -8.773438 C 6.015625 -17.546875 6.367188 -18.25 6.566406 -18.851562 C 7.671875 -18.296875 8.222656 -18.097656 12.03125 -16.84375 C 11.582031 -15.742188 9.375 -9.074219 8.972656 -7.46875 C 8.621094 -6.214844 8.472656 -5.214844 8.472656 -4.210938 C 8.472656 -1.753906 9.675781 0 12.03125 0 L 12.082031 0 C 15.492188 0 17.996094 -3.058594 21.257812 -10.527344 C 21.308594 -10.679688 21.355469 -10.828125 21.355469 -10.980469 C 21.355469 -11.378906 21.105469 -11.730469 20.707031 -11.933594 Z M 6.015625 -24.113281 C 6.015625 -23.613281 5.714844 -22.710938 5.464844 -22.007812 C 4.710938 -22.609375 4.261719 -23.511719 4.261719 -24.316406 C 4.261719 -24.867188 4.5625 -25.265625 5.214844 -25.265625 C 5.613281 -25.265625 6.015625 -24.964844 6.015625 -24.113281 Z M 6.015625 -24.113281 "/></g></g></g><g fill="#ff3873" fill-opacity="0.502"><g transform="translate(184.17894, 120.90637)"><g><path d="M 16.542969 -8.875 C 16.492188 -12.28125 15.140625 -14.039062 12.535156 -18.851562 C 14.085938 -20.605469 15.339844 -22.8125 15.339844 -24.816406 C 15.242188 -26.269531 14.386719 -27.421875 12.933594 -27.421875 C 10.878906 -27.421875 9.273438 -25.21875 9.273438 -22.609375 C 9.273438 -21.457031 9.574219 -20.355469 10.027344 -19.300781 C 9.425781 -18.699219 8.921875 -18.148438 8.320312 -17.445312 C 8.171875 -17.246094 8.070312 -16.996094 8.070312 -16.792969 C 8.070312 -16.492188 8.171875 -16.144531 8.421875 -15.941406 C 8.621094 -15.742188 8.921875 -15.691406 9.175781 -15.691406 C 9.476562 -15.691406 9.777344 -15.84375 9.976562 -16.09375 C 10.277344 -16.492188 10.628906 -16.894531 10.980469 -17.246094 C 13.636719 -12.582031 14.386719 -11.128906 14.4375 -8.921875 C 14.339844 -4.761719 11.429688 -2.105469 7.371094 -2.105469 C 4.460938 -2.105469 1.90625 -4.261719 1.90625 -7.320312 C 2.105469 -10.378906 3.910156 -12.683594 6.667969 -12.683594 C 7.972656 -12.683594 9.222656 -11.429688 9.324219 -9.726562 C 9.324219 -9.125 9.777344 -8.671875 10.378906 -8.671875 C 10.980469 -8.671875 11.429688 -9.125 11.429688 -9.726562 C 11.332031 -12.484375 9.222656 -14.789062 6.617188 -14.789062 C 2.605469 -14.789062 0.101562 -11.832031 -0.199219 -7.320312 C -0.199219 -3.257812 3.207031 0 7.371094 0 C 12.433594 0 16.445312 -3.460938 16.542969 -8.875 Z M 11.632812 -21.054688 C 11.480469 -21.609375 11.378906 -22.109375 11.378906 -22.660156 C 11.378906 -23.363281 11.53125 -24.265625 12.132812 -24.867188 C 12.632812 -25.367188 13.183594 -25.519531 13.183594 -24.816406 C 13.183594 -23.714844 12.433594 -22.160156 11.632812 -21.054688 Z M 11.632812 -21.054688 "/></g></g></g><g fill="#ff3873" fill-opacity="0.502"><g transform="translate(203.480093, 120.90637)"><g><path d="M 18.148438 -11.933594 C 17.597656 -12.132812 16.996094 -11.882812 16.746094 -11.378906 C 13.9375 -4.914062 10.730469 -2.003906 6.617188 -2.105469 C 3.609375 -2.207031 2.003906 -3.960938 2.105469 -6.816406 C 2.15625 -7.871094 2.304688 -8.824219 2.65625 -10.128906 C 8.222656 -11.480469 15.691406 -14.6875 15.691406 -20.003906 C 15.691406 -22.410156 13.9375 -23.714844 11.429688 -23.714844 C 5.515625 -23.714844 0.300781 -13.285156 0 -6.867188 C -0.101562 -2.757812 2.40625 0 6.566406 0 C 11.632812 0 15.441406 -3.308594 18.699219 -10.527344 C 18.75 -10.679688 18.800781 -10.777344 18.800781 -10.929688 C 18.800781 -11.332031 18.550781 -11.730469 18.148438 -11.933594 Z M 3.460938 -12.535156 C 5.0625 -16.394531 7.972656 -21.609375 11.429688 -21.609375 C 12.535156 -21.609375 13.585938 -21.355469 13.585938 -20.003906 C 13.585938 -16.292969 7.621094 -13.835938 3.460938 -12.535156 Z M 3.460938 -12.535156 "/></g></g></g><g fill="#ff83a8" fill-opacity="1"><g transform="translate(80.496036, 120.365806)"><g><path d="M 40.058594 -20.355469 C 40.058594 -29.78125 36.144531 -36.597656 26.820312 -37.046875 C 16.644531 -37.046875 10.378906 -29.226562 10.277344 -18.199219 C 10.277344 -17.597656 10.777344 -17.144531 11.332031 -17.144531 C 11.933594 -17.144531 12.382812 -17.597656 12.382812 -18.199219 C 12.484375 -27.824219 17.695312 -34.941406 26.820312 -34.941406 C 34.792969 -34.542969 37.949219 -28.625 37.949219 -20.355469 C 37.949219 -11.28125 33.339844 1.304688 24.617188 1.304688 C 21.457031 1.304688 18.398438 -0.152344 18.398438 -3.160156 C 18.398438 -5.0625 19.804688 -6.566406 21.457031 -6.566406 C 22.761719 -6.566406 23.8125 -5.363281 24.363281 -3.960938 C 24.515625 -3.507812 24.917969 -3.257812 25.367188 -3.257812 C 26.070312 -3.257812 26.519531 -4.011719 26.320312 -4.664062 C 25.519531 -7.019531 23.8125 -8.671875 21.457031 -8.671875 C 18.699219 -8.671875 16.292969 -6.417969 16.292969 -3.160156 C 16.292969 0.902344 19.851562 3.410156 24.617188 3.410156 C 34.59375 3.410156 40.058594 -9.777344 40.058594 -20.355469 Z M 25.117188 -29.175781 C 25.667969 -30.382812 27.023438 -31.683594 28.175781 -31.886719 C 28.574219 -31.984375 29.027344 -32.335938 29.027344 -33.089844 C 28.925781 -33.738281 28.476562 -34.140625 27.773438 -33.992188 C 25.820312 -33.488281 24.214844 -32.085938 23.210938 -30.179688 C 21.808594 -27.421875 20.65625 -23.714844 19.5 -19.851562 C 17.144531 -12.183594 14.289062 -2.054688 7.269531 -2.054688 C 4.460938 -2.054688 2.105469 -3.710938 2.105469 -6.816406 C 2.105469 -9.726562 4.511719 -12.835938 7.269531 -12.835938 C 7.570312 -12.835938 7.820312 -12.785156 8.070312 -12.734375 C 8.773438 -12.582031 9.425781 -13.085938 9.425781 -13.785156 C 9.425781 -14.238281 9.125 -14.640625 8.671875 -14.789062 C 8.171875 -14.941406 7.71875 -14.988281 7.21875 -14.988281 C 3.410156 -14.988281 0 -11.078125 0 -6.71875 C 0 -2.605469 3.207031 0.0507812 7.320312 0.0507812 C 15.640625 0.0507812 18.75 -10.226562 21.507812 -19.25 C 22.660156 -22.960938 23.761719 -26.570312 25.117188 -29.175781 Z M 25.117188 -29.175781 "/></g></g></g><g fill="#ff83a8" fill-opacity="1"><g transform="translate(122.256711, 120.365806)"><g><path d="M 8.171875 -26.269531 C 9.125 -26.269531 9.875 -27.023438 9.875 -27.972656 C 9.875 -28.925781 9.125 -29.679688 8.171875 -29.679688 C 7.21875 -29.679688 6.417969 -28.925781 6.417969 -27.972656 C 6.417969 -27.023438 7.21875 -26.269531 8.171875 -26.269531 Z M 11.480469 -11.933594 C 11.332031 -11.980469 11.230469 -12.03125 11.078125 -12.03125 C 10.679688 -12.03125 10.277344 -11.78125 10.078125 -11.378906 C 8.222656 -7.269531 5.914062 -2.105469 2.808594 -2.105469 C 1.753906 -2.105469 1.304688 -2.757812 1.304688 -4.210938 C 1.304688 -6.367188 2.207031 -8.671875 7.070312 -22.359375 C 7.371094 -23.210938 6.71875 -23.714844 6.066406 -23.714844 C 5.664062 -23.714844 5.265625 -23.460938 5.113281 -23.011719 C 2.90625 -17.296875 -0.652344 -8.121094 -0.800781 -4.210938 C -0.902344 -1.90625 0.402344 0 2.808594 0 C 7.019531 0 9.625 -5.113281 12.03125 -10.527344 C 12.082031 -10.679688 12.132812 -10.828125 12.132812 -10.980469 C 12.132812 -11.378906 11.882812 -11.78125 11.480469 -11.933594 Z M 11.480469 -11.933594 "/></g></g></g><g fill="#ff83a8" fill-opacity="1"><g transform="translate(131.48116, 120.365806)"><g><path d="M 19.550781 -11.933594 C 19.402344 -11.980469 19.25 -12.03125 19.101562 -12.03125 C 18.699219 -12.03125 18.25 -11.832031 18.148438 -11.378906 C 17.347656 -8.523438 15.039062 -5.3125 12.382812 -5.3125 C 11.429688 -5.3125 10.628906 -5.664062 9.976562 -6.367188 C 10.929688 -7.921875 16.492188 -18.800781 18.199219 -22.308594 C 18.25 -22.460938 18.296875 -22.609375 18.296875 -22.761719 C 18.296875 -23.160156 18.046875 -23.5625 17.695312 -23.761719 C 17.546875 -23.8125 17.394531 -23.863281 17.246094 -23.863281 C 16.84375 -23.863281 16.445312 -23.613281 16.242188 -23.261719 C 15.492188 -21.609375 9.828125 -10.378906 9.273438 -9.476562 C 9.324219 -9.828125 9.425781 -10.277344 9.523438 -10.679688 C 9.675781 -11.378906 9.175781 -12.03125 8.472656 -12.03125 C 8.019531 -12.03125 7.621094 -11.730469 7.46875 -11.230469 C 7.070312 -9.828125 6.96875 -7.972656 7.519531 -6.46875 C 6.367188 -4.460938 4.511719 -2.105469 2.757812 -2.105469 C 1.65625 -2.105469 1.253906 -2.757812 1.253906 -4.210938 C 1.253906 -6.117188 2.757812 -10.378906 7.117188 -22.410156 C 7.371094 -23.0625 6.917969 -23.8125 6.117188 -23.8125 C 5.664062 -23.8125 5.265625 -23.5625 5.113281 -23.160156 C 1.605469 -13.183594 -0.851562 -7.417969 -0.851562 -4.210938 C -0.851562 -1.753906 0.25 0 2.757812 0 C 4.914062 0 6.367188 -1.253906 8.824219 -4.5625 C 9.726562 -3.660156 10.980469 -3.207031 12.332031 -3.207031 C 15.84375 -3.207031 19 -6.816406 20.105469 -10.578125 C 20.152344 -10.730469 20.203125 -10.828125 20.203125 -10.980469 C 20.203125 -11.378906 19.953125 -11.78125 19.550781 -11.933594 Z M 19.550781 -11.933594 "/></g></g></g><g fill="#ff83a8" fill-opacity="1"><g transform="translate(148.776998, 120.365806)"><g><path d="M 18.148438 -11.933594 C 17.597656 -12.132812 16.996094 -11.882812 16.746094 -11.378906 C 13.9375 -4.914062 10.730469 -2.003906 6.617188 -2.105469 C 3.609375 -2.207031 2.003906 -3.960938 2.105469 -6.816406 C 2.15625 -7.871094 2.304688 -8.824219 2.65625 -10.128906 C 8.222656 -11.480469 15.691406 -14.6875 15.691406 -20.003906 C 15.691406 -22.410156 13.9375 -23.714844 11.429688 -23.714844 C 5.515625 -23.714844 0.300781 -13.285156 0 -6.867188 C -0.101562 -2.757812 2.40625 0 6.566406 0 C 11.632812 0 15.441406 -3.308594 18.699219 -10.527344 C 18.75 -10.679688 18.800781 -10.777344 18.800781 -10.929688 C 18.800781 -11.332031 18.550781 -11.730469 18.148438 -11.933594 Z M 3.460938 -12.535156 C 5.0625 -16.394531 7.972656 -21.609375 11.429688 -21.609375 C 12.535156 -21.609375 13.585938 -21.355469 13.585938 -20.003906 C 13.585938 -16.292969 7.621094 -13.835938 3.460938 -12.535156 Z M 3.460938 -12.535156 "/></g></g></g><g fill="#ff83a8" fill-opacity="1"><g transform="translate(164.669117, 120.365806)"><g><path d="M 20.707031 -11.933594 C 20.554688 -11.980469 20.40625 -12.03125 20.253906 -12.03125 C 19.851562 -12.03125 19.5 -11.78125 19.300781 -11.378906 C 16.445312 -4.914062 14.539062 -2.105469 12.082031 -2.105469 C 10.980469 -2.105469 10.578125 -2.957031 10.578125 -4.210938 C 10.628906 -5.0625 10.730469 -5.914062 11.03125 -6.96875 C 11.332031 -8.222656 13.738281 -15.390625 14.386719 -17.046875 C 14.589844 -17.648438 14.339844 -18.296875 13.785156 -18.5 C 13.234375 -18.699219 12.582031 -18.898438 11.882812 -19.101562 C 10.429688 -19.601562 8.722656 -20.152344 7.320312 -20.855469 C 7.921875 -22.8125 8.121094 -23.261719 8.121094 -24.0625 C 8.121094 -26.070312 7.019531 -27.371094 5.214844 -27.371094 C 3.609375 -27.371094 2.15625 -26.167969 2.15625 -24.113281 C 2.15625 -22.257812 3.207031 -20.957031 4.710938 -19.902344 L 4.109375 -18.398438 L 0.101562 -9.675781 C 0.0507812 -9.523438 0 -9.375 0 -9.222656 C 0 -8.824219 0.25 -8.472656 0.601562 -8.273438 C 0.753906 -8.222656 0.902344 -8.171875 1.101562 -8.171875 C 1.453125 -8.171875 1.804688 -8.371094 2.003906 -8.773438 C 6.015625 -17.546875 6.367188 -18.25 6.566406 -18.851562 C 7.671875 -18.296875 8.222656 -18.097656 12.03125 -16.84375 C 11.582031 -15.742188 9.375 -9.074219 8.972656 -7.46875 C 8.621094 -6.214844 8.472656 -5.214844 8.472656 -4.210938 C 8.472656 -1.753906 9.675781 0 12.03125 0 L 12.082031 0 C 15.492188 0 17.996094 -3.058594 21.257812 -10.527344 C 21.308594 -10.679688 21.355469 -10.828125 21.355469 -10.980469 C 21.355469 -11.378906 21.105469 -11.730469 20.707031 -11.933594 Z M 6.015625 -24.113281 C 6.015625 -23.613281 5.714844 -22.710938 5.464844 -22.007812 C 4.710938 -22.609375 4.261719 -23.511719 4.261719 -24.316406 C 4.261719 -24.867188 4.5625 -25.265625 5.214844 -25.265625 C 5.613281 -25.265625 6.015625 -24.964844 6.015625 -24.113281 Z M 6.015625 -24.113281 "/></g></g></g><g fill="#ff83a8" fill-opacity="1"><g transform="translate(183.118015, 120.365806)"><g><path d="M 16.542969 -8.875 C 16.492188 -12.28125 15.140625 -14.039062 12.535156 -18.851562 C 14.085938 -20.605469 15.339844 -22.8125 15.339844 -24.816406 C 15.242188 -26.269531 14.386719 -27.421875 12.933594 -27.421875 C 10.878906 -27.421875 9.273438 -25.21875 9.273438 -22.609375 C 9.273438 -21.457031 9.574219 -20.355469 10.027344 -19.300781 C 9.425781 -18.699219 8.921875 -18.148438 8.320312 -17.445312 C 8.171875 -17.246094 8.070312 -16.996094 8.070312 -16.792969 C 8.070312 -16.492188 8.171875 -16.144531 8.421875 -15.941406 C 8.621094 -15.742188 8.921875 -15.691406 9.175781 -15.691406 C 9.476562 -15.691406 9.777344 -15.84375 9.976562 -16.09375 C 10.277344 -16.492188 10.628906 -16.894531 10.980469 -17.246094 C 13.636719 -12.582031 14.386719 -11.128906 14.4375 -8.921875 C 14.339844 -4.761719 11.429688 -2.105469 7.371094 -2.105469 C 4.460938 -2.105469 1.90625 -4.261719 1.90625 -7.320312 C 2.105469 -10.378906 3.910156 -12.683594 6.667969 -12.683594 C 7.972656 -12.683594 9.222656 -11.429688 9.324219 -9.726562 C 9.324219 -9.125 9.777344 -8.671875 10.378906 -8.671875 C 10.980469 -8.671875 11.429688 -9.125 11.429688 -9.726562 C 11.332031 -12.484375 9.222656 -14.789062 6.617188 -14.789062 C 2.605469 -14.789062 0.101562 -11.832031 -0.199219 -7.320312 C -0.199219 -3.257812 3.207031 0 7.371094 0 C 12.433594 0 16.445312 -3.460938 16.542969 -8.875 Z M 11.632812 -21.054688 C 11.480469 -21.609375 11.378906 -22.109375 11.378906 -22.660156 C 11.378906 -23.363281 11.53125 -24.265625 12.132812 -24.867188 C 12.632812 -25.367188 13.183594 -25.519531 13.183594 -24.816406 C 13.183594 -23.714844 12.433594 -22.160156 11.632812 -21.054688 Z M 11.632812 -21.054688 "/></g></g></g><g fill="#ff83a8" fill-opacity="1"><g transform="translate(202.419168, 120.365806)"><g><path d="M 18.148438 -11.933594 C 17.597656 -12.132812 16.996094 -11.882812 16.746094 -11.378906 C 13.9375 -4.914062 10.730469 -2.003906 6.617188 -2.105469 C 3.609375 -2.207031 2.003906 -3.960938 2.105469 -6.816406 C 2.15625 -7.871094 2.304688 -8.824219 2.65625 -10.128906 C 8.222656 -11.480469 15.691406 -14.6875 15.691406 -20.003906 C 15.691406 -22.410156 13.9375 -23.714844 11.429688 -23.714844 C 5.515625 -23.714844 0.300781 -13.285156 0 -6.867188 C -0.101562 -2.757812 2.40625 0 6.566406 0 C 11.632812 0 15.441406 -3.308594 18.699219 -10.527344 C 18.75 -10.679688 18.800781 -10.777344 18.800781 -10.929688 C 18.800781 -11.332031 18.550781 -11.730469 18.148438 -11.933594 Z M 3.460938 -12.535156 C 5.0625 -16.394531 7.972656 -21.609375 11.429688 -21.609375 C 12.535156 -21.609375 13.585938 -21.355469 13.585938 -20.003906 C 13.585938 -16.292969 7.621094 -13.835938 3.460938 -12.535156 Z M 3.460938 -12.535156 "/></g></g></g></svg>