<svg xmlns="http://www.w3.org/2000/svg" xmlns:xlink="http://www.w3.org/1999/xlink" width="500" zoomAndPan="magnify" viewBox="0 0 375 374.999991" height="500" preserveAspectRatio="xMidYMid meet" version="1.0"><defs><clipPath id="835bd24a25"><path d="M 100.796875 82.96875 L 250.796875 82.96875 L 250.796875 275.71875 L 100.796875 275.71875 Z M 100.796875 82.96875 " clip-rule="nonzero"/></clipPath></defs><g clip-path="url(#835bd24a25)"><path fill="#ff83a8" d="M 251.136719 98.007812 C 251.136719 89.738281 244.371094 82.972656 235.953125 82.972656 L 115.984375 82.972656 C 107.5625 82.972656 100.796875 89.738281 100.796875 98.007812 L 100.796875 260.375 C 100.796875 268.644531 107.5625 275.410156 115.984375 275.410156 L 235.953125 275.410156 C 244.371094 275.410156 251.136719 268.644531 251.136719 260.375 Z M 245.125 260.375 C 245.125 265.335938 241.066406 269.394531 235.953125 269.394531 L 115.984375 269.394531 C 111.019531 269.394531 106.8125 265.335938 106.8125 260.375 L 106.8125 98.007812 C 106.8125 93.046875 110.871094 88.988281 115.984375 88.988281 L 235.953125 88.988281 C 240.914062 88.988281 245.125 93.046875 245.125 98.007812 Z M 245.125 260.375 " fill-opacity="1" fill-rule="nonzero"/></g><path fill="#ff83a8" d="M 230.089844 251.355469 L 121.847656 251.355469 C 120.191406 251.355469 118.839844 252.707031 118.839844 254.363281 C 118.839844 256.015625 120.191406 257.367188 121.847656 257.367188 L 230.089844 257.367188 C 231.742188 257.367188 233.097656 256.015625 233.097656 254.363281 C 233.097656 252.707031 231.742188 251.355469 230.089844 251.355469 Z M 230.089844 251.355469 " fill-opacity="1" fill-rule="nonzero"/><path fill="#ff83a8" d="M 230.089844 236.320312 L 121.847656 236.320312 C 120.191406 236.320312 118.839844 237.675781 118.839844 239.328125 C 118.839844 240.980469 120.191406 242.335938 121.847656 242.335938 L 230.089844 242.335938 C 231.742188 242.335938 233.097656 240.980469 233.097656 239.328125 C 233.097656 237.675781 231.742188 236.320312 230.089844 236.320312 Z M 230.089844 236.320312 " fill-opacity="1" fill-rule="nonzero"/><path fill="#ff83a8" d="M 230.089844 116.050781 L 121.847656 116.050781 C 120.191406 116.050781 118.839844 117.402344 118.839844 119.054688 C 118.839844 120.710938 120.191406 122.0625 121.847656 122.0625 L 230.089844 122.0625 C 231.742188 122.0625 233.097656 120.710938 233.097656 119.054688 C 233.097656 117.402344 231.742188 116.050781 230.089844 116.050781 Z M 230.089844 116.050781 " fill-opacity="1" fill-rule="nonzero"/><path fill="#ff83a8" d="M 230.089844 101.015625 L 121.847656 101.015625 C 120.191406 101.015625 118.839844 102.367188 118.839844 104.023438 C 118.839844 105.675781 120.191406 107.027344 121.847656 107.027344 L 230.089844 107.027344 C 231.742188 107.027344 233.097656 105.675781 233.097656 104.023438 C 233.097656 102.367188 231.742188 101.015625 230.089844 101.015625 Z M 230.089844 101.015625 " fill-opacity="1" fill-rule="nonzero"/><path fill="#ff83a8" d="M 195.8125 156.941406 C 197.464844 159.046875 199.570312 163.40625 200.324219 172.425781 C 200.625 175.582031 203.179688 177.839844 206.335938 177.839844 L 212.050781 177.839844 C 213.703125 177.839844 215.207031 177.238281 216.410156 176.035156 C 217.613281 174.832031 218.214844 173.328125 218.0625 171.675781 L 216.859375 139.050781 C 216.710938 134.539062 213.101562 131.082031 208.589844 131.082031 L 143.195312 131.082031 C 138.683594 131.082031 135.074219 134.539062 134.925781 139.050781 L 133.871094 171.675781 C 133.871094 173.328125 134.472656 174.832031 135.527344 176.035156 C 136.730469 177.238281 138.234375 177.839844 139.886719 177.839844 L 145.449219 177.839844 C 148.605469 177.839844 151.160156 175.433594 151.460938 172.425781 C 152.363281 163.253906 154.46875 158.894531 156.125 156.941406 C 156.875 155.890625 158.078125 154.835938 160.183594 154.085938 L 160.183594 206.703125 C 160.183594 207.90625 160.03125 208.660156 160.03125 209.109375 C 159.28125 209.410156 157.625 209.710938 154.769531 209.859375 C 151.613281 210.160156 149.207031 212.71875 149.207031 215.875 L 149.207031 221.285156 C 149.207031 224.59375 151.914062 227.300781 155.222656 227.300781 L 197.015625 227.300781 C 200.324219 227.300781 203.027344 224.59375 203.027344 221.285156 L 203.027344 215.722656 C 203.027344 212.566406 200.625 210.011719 197.464844 209.710938 C 194.460938 209.410156 192.957031 209.109375 192.203125 208.960938 C 192.054688 208.507812 192.054688 207.757812 192.054688 206.554688 L 192.054688 153.933594 C 193.859375 154.835938 195.0625 155.890625 195.8125 156.941406 Z M 187.695312 213.46875 C 189.046875 214.523438 192.054688 215.273438 196.714844 215.722656 L 196.714844 221.285156 L 155.070312 221.285156 L 155.070312 215.722656 C 159.882812 215.273438 162.886719 214.523438 164.089844 213.46875 C 165.445312 212.417969 166.046875 210.011719 166.046875 206.554688 L 166.046875 147.320312 L 164.542969 147.320312 C 158.828125 147.320312 154.320312 149.273438 151.3125 153.183594 C 148.304688 157.09375 146.351562 163.253906 145.449219 171.824219 L 139.886719 171.824219 L 140.9375 139.203125 C 140.9375 138 141.992188 136.945312 143.195312 136.945312 L 208.742188 136.945312 C 209.945312 136.945312 210.996094 137.847656 210.996094 139.203125 L 212.050781 171.824219 L 206.335938 171.824219 C 205.585938 163.253906 203.628906 157.09375 200.472656 153.183594 C 197.464844 149.273438 192.957031 147.320312 187.242188 147.320312 L 185.738281 147.320312 L 185.738281 206.554688 C 185.738281 210.011719 186.339844 212.417969 187.695312 213.46875 Z M 187.695312 213.46875 " fill-opacity="1" fill-rule="nonzero"/><path fill="#ff83a8" d="M 121.847656 152.128906 L 128.460938 152.128906 L 128.609375 146.117188 L 121.847656 146.117188 C 120.191406 146.117188 118.839844 147.46875 118.839844 149.125 C 118.839844 150.777344 120.191406 152.128906 121.847656 152.128906 Z M 121.847656 152.128906 " fill-opacity="1" fill-rule="nonzero"/><path fill="#ff83a8" d="M 121.847656 167.164062 L 128.007812 167.164062 L 128.160156 161.152344 L 121.847656 161.152344 C 120.191406 161.152344 118.839844 162.503906 118.839844 164.15625 C 118.839844 165.8125 120.191406 167.164062 121.847656 167.164062 Z M 121.847656 167.164062 " fill-opacity="1" fill-rule="nonzero"/><path fill="#ff83a8" d="M 230.089844 131.082031 L 221.21875 131.082031 C 222.121094 132.738281 222.722656 134.691406 222.875 136.644531 L 222.875 137.097656 L 230.089844 137.097656 C 231.742188 137.097656 233.097656 135.742188 233.097656 134.089844 C 233.097656 132.4375 231.742188 131.082031 230.089844 131.082031 Z M 230.089844 131.082031 " fill-opacity="1" fill-rule="nonzero"/><path fill="#ff83a8" d="M 121.847656 137.097656 L 128.910156 137.097656 L 128.910156 136.796875 C 128.910156 134.691406 129.511719 132.886719 130.566406 131.082031 L 121.847656 131.082031 C 120.191406 131.082031 118.839844 132.4375 118.839844 134.089844 C 118.839844 135.742188 120.191406 137.097656 121.847656 137.097656 Z M 121.847656 137.097656 " fill-opacity="1" fill-rule="nonzero"/><path fill="#ff83a8" d="M 230.089844 191.21875 L 197.765625 191.21875 L 197.765625 197.234375 L 230.089844 197.234375 C 231.742188 197.234375 233.097656 195.878906 233.097656 194.226562 C 233.097656 192.570312 231.742188 191.21875 230.089844 191.21875 Z M 230.089844 191.21875 " fill-opacity="1" fill-rule="nonzero"/><path fill="#ff83a8" d="M 230.089844 176.183594 L 223.324219 176.183594 C 222.722656 177.6875 221.820312 179.042969 220.769531 180.246094 C 220.019531 180.996094 219.265625 181.597656 218.363281 182.199219 L 230.242188 182.199219 C 231.894531 182.199219 233.246094 180.84375 233.246094 179.191406 C 233.246094 177.539062 231.742188 176.183594 230.089844 176.183594 Z M 230.089844 176.183594 " fill-opacity="1" fill-rule="nonzero"/><path fill="#ff83a8" d="M 230.089844 161.152344 L 223.777344 161.152344 L 223.925781 167.164062 L 230.089844 167.164062 C 231.742188 167.164062 233.097656 165.8125 233.097656 164.15625 C 233.097656 162.503906 231.742188 161.152344 230.089844 161.152344 Z M 230.089844 161.152344 " fill-opacity="1" fill-rule="nonzero"/><path fill="#ff83a8" d="M 230.089844 146.117188 L 223.175781 146.117188 L 223.324219 152.128906 L 230.089844 152.128906 C 231.742188 152.128906 233.097656 150.777344 233.097656 149.125 C 233.097656 147.46875 231.742188 146.117188 230.089844 146.117188 Z M 230.089844 146.117188 " fill-opacity="1" fill-rule="nonzero"/><path fill="#ff83a8" d="M 230.089844 206.253906 L 206.1875 206.253906 C 207.691406 207.757812 208.742188 209.859375 208.742188 212.265625 L 230.089844 212.265625 C 231.742188 212.265625 233.097656 210.914062 233.097656 209.257812 C 233.097656 207.605469 231.742188 206.253906 230.089844 206.253906 Z M 230.089844 206.253906 " fill-opacity="1" fill-rule="nonzero"/><path fill="#ff83a8" d="M 121.847656 227.300781 L 143.34375 227.300781 C 143.195312 226.550781 143.042969 225.796875 143.042969 225.046875 L 143.042969 221.285156 L 121.847656 221.285156 C 120.191406 221.285156 118.839844 222.640625 118.839844 224.292969 C 118.839844 225.949219 120.191406 227.300781 121.847656 227.300781 Z M 121.847656 227.300781 " fill-opacity="1" fill-rule="nonzero"/><path fill="#ff83a8" d="M 230.089844 221.285156 L 208.742188 221.285156 L 208.742188 225.046875 C 208.742188 225.796875 208.59375 226.550781 208.441406 227.300781 L 230.089844 227.300781 C 231.742188 227.300781 233.097656 225.949219 233.097656 224.292969 C 233.097656 222.640625 231.742188 221.285156 230.089844 221.285156 Z M 230.089844 221.285156 " fill-opacity="1" fill-rule="nonzero"/><path fill="#ff83a8" d="M 121.847656 212.265625 L 143.042969 212.265625 C 143.042969 209.859375 144.097656 207.757812 145.597656 206.253906 L 121.847656 206.253906 C 120.191406 206.253906 118.839844 207.605469 118.839844 209.257812 C 118.839844 210.914062 120.191406 212.265625 121.847656 212.265625 Z M 121.847656 212.265625 " fill-opacity="1" fill-rule="nonzero"/><path fill="#ff83a8" d="M 121.847656 197.234375 L 154.019531 197.234375 L 154.019531 191.21875 L 121.847656 191.21875 C 120.191406 191.21875 118.839844 192.570312 118.839844 194.226562 C 118.839844 195.878906 120.191406 197.234375 121.847656 197.234375 Z M 121.847656 197.234375 " fill-opacity="1" fill-rule="nonzero"/><path fill="#ff83a8" d="M 121.847656 182.199219 L 133.722656 182.199219 C 132.820312 181.597656 132.070312 180.996094 131.316406 180.246094 C 130.113281 179.042969 129.363281 177.6875 128.761719 176.183594 L 121.847656 176.183594 C 120.191406 176.183594 118.839844 177.539062 118.839844 179.191406 C 118.839844 180.84375 120.191406 182.199219 121.847656 182.199219 Z M 121.847656 182.199219 " fill-opacity="1" fill-rule="nonzero"/></svg>